<?xml version="1.0" standalone="no"?>
<!DOCTYPE svg PUBLIC "-//W3C//DTD SVG 20010904//EN"
 "http://www.w3.org/TR/2001/REC-SVG-20010904/DTD/svg10.dtd">
<svg version="1.0" xmlns="http://www.w3.org/2000/svg"
 width="2000.000000pt" height="2229.000000pt" viewBox="0 0 2000.000000 2229.000000"
 preserveAspectRatio="xMidYMid meet">

<g transform="translate(0.000000,2229.000000) scale(0.100000,-0.100000)"
fill="#C01014" stroke="none">
<path d="M7490 22130 c-189 -33 -343 -144 -427 -307 -65 -124 -78 -179 -77
-323 1 -152 19 -227 131 -529 216 -587 354 -1082 407 -1470 21 -145 38 -481
32 -591 -3 -47 -8 -132 -11 -190 -22 -386 -140 -900 -298 -1300 -80 -203 -261
-568 -372 -750 -147 -242 -439 -666 -603 -875 -84 -108 -377 -458 -473 -566
-262 -295 -610 -677 -750 -824 -42 -44 -98 -105 -124 -135 -27 -30 -121 -131
-209 -225 -89 -93 -197 -208 -241 -255 -44 -47 -82 -87 -85 -90 -3 -3 -50 -52
-104 -110 -55 -58 -159 -166 -231 -240 -156 -162 -570 -609 -739 -800 -27 -30
-117 -131 -200 -225 -177 -198 -355 -409 -552 -655 -297 -370 -437 -580 -702
-1055 -141 -254 -352 -714 -442 -966 -205 -572 -321 -1114 -382 -1779 -16
-178 -16 -908 0 -1105 95 -1147 358 -2056 872 -3005 306 -566 655 -1028 1101
-1456 340 -327 611 -535 1079 -832 383 -242 1051 -563 1530 -734 117 -42 499
-171 575 -194 494 -152 1171 -303 1555 -349 390 -46 593 -55 692 -30 212 55
341 176 415 388 75 216 13 480 -149 632 -128 121 -245 166 -481 185 -388 32
-992 152 -1502 299 -277 80 -612 195 -880 303 -55 22 -122 49 -150 60 -237 92
-750 353 -993 504 -189 118 -372 241 -487 329 -629 478 -1062 1022 -1372 1725
-200 453 -334 853 -428 1280 -106 481 -123 579 -151 870 -13 130 -18 271 -18
550 -1 401 9 548 59 869 67 434 230 1015 378 1347 24 54 57 128 72 164 101
231 367 703 523 926 164 236 248 354 300 419 252 317 471 577 656 780 50 55
114 125 141 155 63 68 480 512 719 765 99 105 212 224 251 265 107 115 444
469 590 620 483 501 529 550 711 755 290 327 311 351 537 635 211 264 593 809
752 1075 132 219 394 749 464 940 149 401 226 676 294 1045 67 364 101 944 78
1330 -15 250 -56 645 -80 779 -21 114 -19 131 11 131 78 0 581 -332 884 -583
388 -321 736 -694 956 -1022 44 -66 86 -127 93 -135 15 -18 179 -308 248 -438
245 -467 405 -1000 457 -1527 14 -140 14 -501 0 -642 -19 -186 -66 -448 -116
-648 -50 -198 -197 -561 -328 -810 -230 -437 -648 -1030 -1066 -1511 -19 -22
-46 -53 -59 -70 -192 -232 -516 -578 -1026 -1094 -751 -761 -1173 -1204 -1396
-1465 -637 -744 -1001 -1352 -1254 -2095 -141 -414 -263 -931 -299 -1275 -57
-534 -57 -910 -1 -1430 26 -233 99 -640 141 -785 9 -30 25 -89 36 -130 25 -97
108 -349 169 -517 109 -299 372 -829 515 -1040 199 -292 308 -394 477 -449
110 -36 249 -38 352 -6 221 68 411 286 435 497 20 177 -17 306 -135 476 -102
145 -278 471 -381 702 -181 406 -315 873 -384 1335 -53 355 -63 812 -26 1157
30 279 112 676 191 925 32 104 144 398 196 517 50 114 180 371 208 411 10 15
45 71 76 125 149 255 422 608 719 932 320 348 445 477 1079 1115 763 768 961
973 1278 1330 151 170 379 448 450 550 18 25 55 74 84 110 78 98 292 400 397
561 305 465 505 870 670 1359 230 680 312 1364 242 2027 -75 726 -294 1396
-669 2048 -107 186 -345 545 -461 695 -130 168 -181 230 -283 345 -302 342
-749 744 -1263 1136 -211 162 -600 417 -981 643 -17 11 -77 47 -132 81 -159
99 -183 112 -320 179 -231 113 -550 233 -679 255 -68 12 -239 13 -306 1z"/>
<path d="M14935 14859 c-150 -23 -251 -75 -365 -190 -139 -141 -194 -271 -193
-464 0 -140 27 -245 113 -445 34 -80 80 -189 101 -243 22 -54 71 -173 110
-265 213 -502 292 -810 306 -1192 19 -554 -166 -1115 -563 -1701 -292 -432
-725 -907 -1220 -1339 -296 -258 -533 -460 -743 -634 -86 -70 -201 -165 -255
-210 -54 -44 -142 -116 -195 -159 -53 -43 -147 -124 -209 -179 -63 -55 -153
-132 -200 -172 -392 -327 -868 -808 -1126 -1140 -329 -421 -608 -1001 -716
-1488 -66 -293 -91 -532 -91 -853 0 -256 10 -390 46 -599 109 -629 359 -1171
715 -1550 36 -38 123 -118 195 -178 318 -267 605 -414 1029 -528 522 -140
1213 -130 1841 27 831 207 1718 710 2536 1437 147 132 639 621 734 730 33 38
103 117 156 175 315 350 715 881 977 1298 405 644 743 1451 892 2123 171 773
195 1507 74 2285 -43 280 -120 648 -170 824 -119 409 -139 470 -244 731 -81
203 -205 469 -297 635 -27 50 -65 117 -83 150 -149 272 -418 671 -654 970 -39
50 -73 92 -76 95 -3 3 -24 28 -45 55 -22 28 -42 52 -45 55 -3 3 -25 30 -50 60
-410 502 -1058 1155 -1566 1580 -205 172 -360 269 -459 289 -78 16 -194 20
-260 10z m1362 -2649 c101 -99 311 -376 470 -620 232 -358 473 -860 613 -1280
196 -587 274 -930 320 -1403 38 -389 37 -559 -4 -977 -39 -396 -169 -910 -341
-1355 -170 -436 -503 -1028 -803 -1424 -347 -459 -502 -639 -877 -1019 -514
-523 -1061 -950 -1600 -1249 -263 -147 -574 -270 -885 -352 -329 -87 -746
-105 -1057 -45 -187 35 -462 148 -616 253 -71 48 -201 172 -253 241 -170 228
-282 544 -330 930 -30 248 -8 656 47 880 135 544 425 1007 994 1585 46 46 334
318 385 362 25 22 88 77 140 123 125 110 587 489 956 785 34 28 118 96 186
153 67 57 168 141 223 187 55 45 129 107 164 136 35 30 83 70 106 89 170 142
380 335 515 475 132 137 257 273 288 315 14 19 38 49 53 65 89 97 369 477 480
650 486 763 714 1472 764 2380 7 115 11 145 24 145 4 0 21 -14 38 -30z"/>
</g>
</svg>
