<?xml version="1.0" standalone="no"?>
<!DOCTYPE svg PUBLIC "-//W3C//DTD SVG 20010904//EN"
 "http://www.w3.org/TR/2001/REC-SVG-20010904/DTD/svg10.dtd">
<svg version="1.0" xmlns="http://www.w3.org/2000/svg"
 width="1280.000000pt" height="914.000000pt" viewBox="0 0 1280.000000 914.000000"
 preserveAspectRatio="xMidYMid meet">

<g transform="translate(0.000000,914.000000) scale(0.100000,-0.100000)"
fill="#ffffff" stroke="none">
<path d="M6405 6753 c-4 -16 -10 -36 -16 -45 -5 -10 -9 -26 -9 -35 0 -16 -18
-74 -40 -128 -5 -11 -10 -29 -13 -40 -3 -11 -18 -58 -35 -105 -33 -95 -150
-460 -189 -590 -14 -47 -29 -94 -33 -105 -14 -36 -36 -105 -85 -270 -15 -49
-38 -119 -50 -155 -28 -78 -91 -271 -130 -395 -15 -49 -42 -135 -60 -190 -51
-159 -65 -206 -65 -224 -1 -22 -24 -51 -41 -51 -8 0 -46 19 -84 41 -138 82
-584 333 -745 421 -36 19 -146 80 -245 135 -99 55 -306 170 -460 255 -154 86
-309 172 -345 193 -64 37 -385 215 -855 474 -132 73 -250 139 -262 147 -24 15
-596 329 -648 356 -16 8 -63 34 -103 57 -41 23 -76 41 -78 38 -2 -2 26 -32 63
-67 38 -35 151 -142 253 -239 102 -97 221 -210 265 -251 44 -41 132 -124 195
-185 63 -61 234 -223 380 -360 145 -138 273 -259 285 -271 39 -39 493 -470
720 -684 126 -118 337 -318 470 -445 132 -126 273 -259 313 -294 87 -77 90
-91 41 -181 -15 -26 -69 -141 -69 -145 0 -2 -22 -50 -49 -107 -26 -57 -56
-121 -66 -143 -10 -22 -40 -86 -66 -142 -27 -57 -49 -105 -49 -108 0 -6 -38
-90 -105 -230 -28 -60 -60 -128 -70 -150 -10 -22 -35 -78 -57 -125 -22 -47
-46 -98 -53 -115 -32 -74 -41 -91 -57 -114 -10 -13 -18 -28 -18 -33 0 -11 30
8 180 118 204 149 630 457 855 619 208 150 414 299 586 425 109 80 397 289
542 395 94 68 111 77 130 68 12 -6 180 -124 372 -263 193 -139 397 -287 454
-328 58 -41 166 -120 241 -176 75 -55 192 -141 260 -191 68 -49 157 -115 199
-146 42 -31 189 -137 326 -236 138 -98 282 -203 321 -231 39 -29 74 -52 77
-52 13 0 6 19 -49 136 -78 165 -264 570 -369 804 -48 107 -116 256 -150 330
-90 193 -108 237 -100 249 6 11 521 502 1460 1391 268 254 577 546 725 684
466 436 948 907 805 786 -23 -20 -94 -60 -185 -105 -36 -18 -103 -54 -150 -80
-47 -26 -107 -60 -135 -75 -27 -15 -70 -38 -95 -52 -25 -14 -157 -87 -295
-163 -240 -131 -324 -179 -445 -250 -30 -18 -89 -51 -130 -73 -41 -21 -133
-72 -205 -112 -183 -102 -209 -117 -305 -167 -47 -25 -89 -49 -95 -53 -5 -4
-35 -21 -65 -38 -30 -16 -89 -49 -130 -72 -201 -114 -498 -279 -715 -397 -99
-54 -191 -106 -310 -173 -48 -27 -260 -146 -455 -255 -61 -34 -88 -45 -99 -38
-8 5 -27 47 -42 94 -64 200 -198 617 -289 899 -54 168 -111 343 -125 390 -15
47 -64 202 -110 345 -46 143 -110 342 -142 443 -32 100 -61 182 -65 182 -4 0
-10 -12 -13 -27z"/>
</g>
</svg>
